<?xml version="1.0" encoding="UTF-8"?>
<svg width="13px" height="13px" viewBox="0 0 13 13" version="1.1" xmlns="http://www.w3.org/2000/svg" xmlns:xlink="http://www.w3.org/1999/xlink">
    <!-- Generator: Sketch 52.2 (67145) - http://www.bohemiancoding.com/sketch -->
    <title>Group-4</title>
    <desc>Created with Sketch.</desc>
    <g id="Page-1" stroke="none" stroke-width="1" fill="none" fill-rule="evenodd">
        <g id="Bookmarks" transform="translate(-931.000000, -21.000000)" stroke="#1C1C1C" stroke-width="0.5">
            <g id="Group-4" transform="translate(931.000000, 21.000000)">
                <path d="M0.781694291,10.75 C3.18839997,10.75 3.41492237,10.75 5.93367647,10.75 C9.77293349,10.75 9.77293349,10.75 12,10.75 L11.8082059,11.1603591 C10.7934661,9.94670112 10.2425373,8.57608627 10.1590879,7.0420899 L10.159066,4.39844891 C10.159066,2.10732384 8.30174216,0.25 6.01061709,0.25 C3.70917447,0.25 1.8434866,2.11568787 1.8434866,4.41712768 L1.84330885,7.03190968 C1.91326621,8.74880593 1.56350693,9.99619389 0.781694291,10.75 Z" id="Rectangle"></path>
                <path d="M4.22915476,10.7603644 L7.77566126,10.7603644 C7.62949976,12.0251746 7.03761268,12.6575797 6,12.6575797 C4.96238732,12.6575797 4.37210558,12.0251746 4.22915476,10.7603644 Z" id="Line-2" stroke-linecap="square"></path>
            </g>
        </g>
    </g>
</svg>